<svg width="284" height="62" viewBox="0 0 284 62" fill="none" xmlns="http://www.w3.org/2000/svg">
<path d="M6.99 28.05V32.31H13.86V36.27H6.99V40.89H14.76V45H1.86V23.94H14.76V28.05H6.99ZM37.8605 23.94L30.3905 45H23.9705L16.5005 23.94H21.9605L27.1805 39.84L32.4305 23.94H37.8605ZM49.9645 45.21C47.9845 45.21 46.1645 44.75 44.5045 43.83C42.8645 42.91 41.5545 41.63 40.5745 39.99C39.6145 38.33 39.1345 36.47 39.1345 34.41C39.1345 32.35 39.6145 30.5 40.5745 28.86C41.5545 27.22 42.8645 25.94 44.5045 25.02C46.1645 24.1 47.9845 23.64 49.9645 23.64C51.9445 23.64 53.7545 24.1 55.3945 25.02C57.0545 25.94 58.3545 27.22 59.2945 28.86C60.2545 30.5 60.7345 32.35 60.7345 34.41C60.7345 36.47 60.2545 38.33 59.2945 39.99C58.3345 41.63 57.0345 42.91 55.3945 43.83C53.7545 44.75 51.9445 45.21 49.9645 45.21ZM49.9645 40.53C51.6445 40.53 52.9845 39.97 53.9845 38.85C55.0045 37.73 55.5145 36.25 55.5145 34.41C55.5145 32.55 55.0045 31.07 53.9845 29.97C52.9845 28.85 51.6445 28.29 49.9645 28.29C48.2645 28.29 46.9045 28.84 45.8845 29.94C44.8845 31.04 44.3845 32.53 44.3845 34.41C44.3845 36.27 44.8845 37.76 45.8845 38.88C46.9045 39.98 48.2645 40.53 49.9645 40.53ZM68.7185 41.04H75.4385V45H63.5885V23.94H68.7185V41.04ZM82.9254 23.94V36.54C82.9254 37.8 83.2354 38.77 83.8554 39.45C84.4754 40.13 85.3854 40.47 86.5854 40.47C87.7854 40.47 88.7054 40.13 89.3454 39.45C89.9854 38.77 90.3054 37.8 90.3054 36.54V23.94H95.4354V36.51C95.4354 38.39 95.0354 39.98 94.2354 41.28C93.4354 42.58 92.3554 43.56 90.9954 44.22C89.6554 44.88 88.1554 45.21 86.4954 45.21C84.8354 45.21 83.3454 44.89 82.0254 44.25C80.7254 43.59 79.6954 42.61 78.9354 41.31C78.1754 39.99 77.7954 38.39 77.7954 36.51V23.94H82.9254ZM108.698 40.5C109.678 40.5 110.548 40.27 111.308 39.81C112.088 39.35 112.688 38.68 113.108 37.8H118.748C118.208 39.82 117.198 41.47 115.718 42.75C114.258 44.01 112.478 44.78 110.378 45.06V46.23C111.418 46.23 112.328 46.51 113.108 47.07C113.888 47.65 114.278 48.51 114.278 49.65C114.278 50.79 113.868 51.65 113.048 52.23C112.228 52.83 111.248 53.13 110.108 53.13H105.488V50.31H109.418C109.818 50.31 110.118 50.25 110.318 50.13C110.518 50.01 110.618 49.81 110.618 49.53C110.618 49.25 110.518 49.05 110.318 48.93C110.118 48.83 109.818 48.78 109.418 48.78H107.288V45.06C105.488 44.86 103.898 44.29 102.518 43.35C101.138 42.39 100.068 41.14 99.3077 39.6C98.5477 38.06 98.1677 36.34 98.1677 34.44C98.1677 32.36 98.6177 30.51 99.5177 28.89C100.418 27.25 101.668 25.98 103.268 25.08C104.888 24.16 106.718 23.7 108.758 23.7C111.258 23.7 113.398 24.36 115.178 25.68C116.958 27 118.148 28.8 118.748 31.08H113.108C112.688 30.2 112.088 29.53 111.308 29.07C110.548 28.61 109.678 28.38 108.698 28.38C107.118 28.38 105.838 28.93 104.858 30.03C103.878 31.13 103.388 32.6 103.388 34.44C103.388 36.28 103.878 37.75 104.858 38.85C105.838 39.95 107.118 40.5 108.698 40.5ZM134.999 41.28H127.139L125.879 45H120.509L128.129 23.94H134.069L141.689 45H136.259L134.999 41.28ZM133.679 37.32L131.069 29.61L128.489 37.32H133.679ZM125.099 22.47C125.579 19.51 126.959 18.03 129.239 18.03C129.679 18.03 130.059 18.1 130.379 18.24C130.719 18.36 131.129 18.55 131.609 18.81C131.969 19.01 132.259 19.16 132.479 19.26C132.699 19.34 132.929 19.38 133.169 19.38C133.909 19.38 134.339 18.93 134.459 18.03H137.099C136.619 20.99 135.239 22.47 132.959 22.47C132.519 22.47 132.129 22.41 131.789 22.29C131.469 22.15 131.069 21.95 130.589 21.69C130.229 21.49 129.939 21.35 129.719 21.27C129.499 21.17 129.269 21.12 129.029 21.12C128.289 21.12 127.849 21.57 127.709 22.47H125.099ZM153.968 45.21C151.988 45.21 150.168 44.75 148.508 43.83C146.868 42.91 145.558 41.63 144.578 39.99C143.618 38.33 143.138 36.47 143.138 34.41C143.138 32.35 143.618 30.5 144.578 28.86C145.558 27.22 146.868 25.94 148.508 25.02C150.168 24.1 151.988 23.64 153.968 23.64C155.948 23.64 157.758 24.1 159.398 25.02C161.058 25.94 162.358 27.22 163.298 28.86C164.258 30.5 164.738 32.35 164.738 34.41C164.738 36.47 164.258 38.33 163.298 39.99C162.338 41.63 161.038 42.91 159.398 43.83C157.758 44.75 155.948 45.21 153.968 45.21ZM153.968 40.53C155.648 40.53 156.988 39.97 157.988 38.85C159.008 37.73 159.518 36.25 159.518 34.41C159.518 32.55 159.008 31.07 157.988 29.97C156.988 28.85 155.648 28.29 153.968 28.29C152.268 28.29 150.908 28.84 149.888 29.94C148.888 31.04 148.388 32.53 148.388 34.41C148.388 36.27 148.888 37.76 149.888 38.88C150.908 39.98 152.268 40.53 153.968 40.53Z" fill="#161616"/>
<g clip-path="url(#clip0)">
<path d="M198.259 50.9459C198.259 50.9459 198.085 59.3818 198.61 59.9062C198.61 59.9062 198.715 60.1875 199.696 60.7472C200.331 61.2273 201.01 61.647 201.723 62.0008C201.723 62.0008 203.265 61.5161 201.723 59.3111C201.723 59.3111 200.847 57.1016 200.463 56.4741L200.883 51.5763C200.883 51.5763 201.198 51.7236 201.472 50.9459C201.472 50.9459 204.168 41.666 204.168 40.0604C204.168 40.0604 204.414 37.3648 204.799 29.3075C204.799 29.3075 205.15 28.8524 205.674 28.8877C205.674 28.8877 205.954 30.3224 209.632 30.4977C209.632 30.4977 214.044 30.7422 215.026 30.7422C215.026 30.7422 217.266 33.4025 219.963 30.1133C219.963 30.1133 222.59 29.0277 219.439 16.6722C219.439 16.6722 219.403 16.0417 217.688 14.6762C217.688 14.6762 216.321 13.6967 215.726 13.1016L215.935 10.7919C215.935 10.7919 216.777 11.8422 217.792 4.66574C217.792 4.66574 218.382 3.02187 215.341 1.97162C215.341 1.97162 214.115 1.30583 211.558 1.62105C211.558 1.62105 209.772 1.76099 210.018 3.58161C209.701 5.08164 209.49 6.60209 209.387 8.13171C209.387 8.13171 207.811 8.27164 205.183 7.95642C205.183 7.95642 197.06 7.0461 194.719 7.25674C194.546 7.36915 194.366 7.47145 194.181 7.56313C194.181 7.56313 192.212 7.26853 190.583 6.3155C190.583 6.3155 186.866 4.74086 185.303 5.98702C185.303 5.98702 185.264 7.6412 185.745 7.74578C185.745 7.74578 186.875 8.18768 187.453 8.14054C187.453 8.14054 187.833 8.16706 188.228 7.75904C188.228 7.75904 189.804 7.40552 190.604 8.40274C190.604 8.40274 191.603 9.95233 193.376 10.2793C193.376 10.2793 193.441 11.7626 194.203 12.2753C194.203 12.2753 196.987 13.7483 197.329 13.9294C197.329 13.9294 199.154 15.0445 199.54 15.2802C199.54 15.2802 201.182 16.0167 202.849 15.2802C202.849 15.2802 202.088 16.0019 200.984 16.843C200.984 16.843 195.468 12.6288 191.948 11.2456C191.948 11.2456 191.042 11.3502 190.412 10.9437C190.412 10.9437 187.011 9.01403 183.727 6.97982C183.727 6.97982 180.496 5.0767 179.787 4.81304C179.787 4.81304 179.092 4.47278 178.552 4.6952C178.552 4.6952 174.835 2.34577 173.142 2.01729C173.142 2.01729 172.051 0.587005 171.54 0.114172C171.54 0.114172 171.264 -0.180429 170.988 0.193713L170.069 1.96131C170.069 1.96131 169.858 2.45919 170.16 2.72285C170.16 2.72285 170.529 3.30027 170.409 3.58898C170.409 3.58898 171.868 3.39159 172.893 3.96901C172.893 3.96901 174.468 4.88816 175.137 5.45232C175.137 5.45232 177.226 7.0137 177.515 7.13301C177.515 7.13301 177.765 7.1065 177.437 7.74872C177.077 8.52964 176.808 9.34903 176.635 10.191C176.599 10.4406 176.613 10.6948 176.675 10.9392C176.675 10.9392 176.753 11.1617 176.806 10.5445C176.806 10.5445 177.883 10.8862 179.919 12.2384C179.919 12.2384 184.134 15.0872 189.624 19.4046C189.624 19.4046 192.684 21.7938 192.881 22.0177L191.488 22.109L191.636 22.7129C191.636 22.7129 191.768 23.2123 191.453 22.9619L191.295 22.8146C191.295 22.8146 190.94 23.9046 192.253 26.7003C192.253 26.7003 194.548 31.4139 198.19 34.2436C198.19 34.2436 197.91 37.7434 195.037 47.5786C195.037 47.5786 194.617 49.3639 194.688 49.5745C194.688 49.5819 197.279 50.0709 198.259 50.9459Z" fill="#161616"/>
</g>
<defs>
<clipPath id="clip0">
<rect width="51" height="62" fill="white" transform="translate(170)"/>
</clipPath>
</defs>
</svg>
